<svg xmlns="http://www.w3.org/2000/svg" width="204" height="42" fill="none" viewBox="0 0 204 42"><path fill="#fff" d="M80.188 9.76v.6q-.96.03-1.47.24-.51.18-.69.72-.15.51-.15 1.62v14.88q0 1.08.18 1.62t.66.72q.51.18 1.47.24v.6q-.78-.06-1.98-.06-1.2-.03-2.43-.03-1.35 0-2.55.03-1.17 0-1.89.06v-.6q1.02-.06 1.53-.24.54-.18.72-.72t.18-1.62V11.5l.21.03-7.44 19.56h-.48l-7.92-19.41v14.88q0 1.44.18 2.25.18.78.78 1.14.63.33 1.89.45v.6q-.57-.06-1.47-.06-.9-.03-1.71-.03-.72 0-1.47.03-.72 0-1.2.06v-.6q.99-.12 1.47-.45.51-.33.66-1.08.18-.75.18-2.07V12.94q0-1.11-.18-1.62-.15-.54-.66-.72-.48-.21-1.47-.24v-.6q.48.03 1.2.06.75.03 1.47.03 1.11 0 2.16-.03t1.86-.06l6.45 16.11-.66.54 6.27-16.56h1.89q1.23 0 2.43-.03t1.98-.06m8.899 5.31q2.64 0 4.14 1.59t1.5 5.07h-10.11l-.03-.57h6.66q.06-1.47-.18-2.7-.24-1.26-.78-2.01-.51-.75-1.35-.75-1.14 0-1.98 1.35-.84 1.32-1.05 4.35l.12.18q-.06.39-.09.84v.9q0 2.07.6 3.42t1.56 1.98 1.98.63q.69 0 1.41-.21t1.41-.78 1.26-1.62l.57.24q-.33 1.05-1.11 2.1-.75 1.02-1.95 1.68t-2.82.66q-2.04 0-3.6-.9t-2.43-2.67q-.87-1.8-.87-4.38 0-2.73.9-4.59.93-1.86 2.55-2.82 1.62-.99 3.69-.99m13.256-4.5v4.95h3.84v.6h-3.84v11.94q0 1.08.39 1.53t1.11.45q.69 0 1.26-.51.57-.54 1.02-1.77l.54.24q-.45 1.47-1.41 2.46-.93.96-2.64.96-1.02 0-1.74-.27-.69-.24-1.2-.72-.66-.69-.9-1.65-.21-.96-.21-2.55V16.12h-2.64v-.6h2.64v-4.17q1.08-.03 2.01-.21t1.77-.57m14.837 4.5q.93 0 1.53.39.63.39.93.99t.3 1.26q0 .99-.6 1.65-.57.66-1.53.66-.9 0-1.47-.48t-.57-1.32q0-.75.36-1.26.39-.51.87-.81-.33-.18-.75-.12-.72.06-1.32.51t-1.02 1.11-.66 1.41q-.21.75-.21 1.44v7.41q0 1.47.75 1.98.75.48 2.19.48V31q-.69-.03-2.01-.06-1.29-.06-2.7-.06-1.17 0-2.34.06-1.14.03-1.71.06v-.63q1.11 0 1.56-.45.48-.45.48-1.71v-9.45q0-1.35-.45-1.98-.42-.66-1.59-.66v-.63q.96.09 1.86.09 1.11 0 2.1-.09 1.02-.12 1.86-.33v3.12q.36-.84.93-1.56.6-.72 1.41-1.17a3.57 3.57 0 0 1 1.8-.48m10.961 0q2.07 0 3.66.84 1.62.81 2.55 2.61.96 1.8.96 4.74t-.96 4.74q-.93 1.8-2.55 2.61-1.59.81-3.66.81t-3.69-.81-2.55-2.61-.93-4.74.93-4.74 2.55-2.61q1.62-.84 3.69-.84m0 .6q-1.41 0-2.31 1.8-.87 1.77-.87 5.79t.87 5.79q.9 1.77 2.31 1.77 1.38 0 2.28-1.77t.9-5.79-.9-5.79q-.9-1.8-2.28-1.8m17.731-5.91v.6q-1.02.03-1.56.24-.51.18-.69.72-.18.51-.18 1.62v15.12q0 .96.15 1.47.18.48.63.63t1.29.15h1.71q1.17 0 2.04-.42.9-.42 1.56-1.23t1.08-1.98q.42-1.2.6-2.7h.69q-.09.99-.09 2.58 0 .66.03 1.89.06 1.23.18 2.55a89 89 0 0 0-3.45-.06q-1.92-.03-3.42-.03h-1.83q-1.11 0-2.43.03-1.29 0-2.64.03-1.32 0-2.52.03v-.6q.99-.06 1.47-.24.51-.18.66-.72.18-.54.18-1.62V12.94q0-1.11-.18-1.62-.15-.54-.66-.72-.48-.21-1.47-.24v-.6q.75.03 1.92.06a99 99 0 0 0 4.95 0q1.2-.03 1.98-.06m23.416 5.4v12.6q0 1.35.45 2.01.45.63 1.59.63v.63q-.93-.09-1.86-.09-1.11 0-2.13.09-.99.09-1.83.33v-3q-.75 1.65-2.07 2.37-1.29.69-2.79.69-1.17 0-1.98-.33-.78-.3-1.26-.84-.51-.57-.72-1.5t-.21-2.4v-7.59q0-1.35-.45-1.98-.42-.66-1.59-.66v-.63q.96.09 1.86.09 1.11 0 2.1-.09 1.02-.12 1.86-.33V27.4q0 .81.12 1.44.15.63.57 1.02.42.36 1.26.36.93 0 1.68-.54t1.17-1.47q.45-.93.45-2.1v-7.35q0-1.35-.45-1.98-.42-.66-1.59-.66v-.63q.96.09 1.86.09 1.11 0 2.1-.09 1.02-.12 1.86-.33m9.65.33v.63q-.57 0-.9.27t-.03.75l7.95 11.73q.42.6.81.99t.93.51V31q-.42-.03-1.23-.06-.81-.06-1.62-.06-1.05 0-2.16.06-1.08.03-1.62.06v-.63q.6 0 .93-.27.33-.3 0-.75l-7.95-11.73q-.51-.78-.87-1.08-.36-.33-.87-.42v-.63l1.35.09q.9.03 1.74.03 1.02 0 2.04-.03zm-.18 8.07.03.18q.06.18.12.39l.06.18-1.62 2.13q-.87 1.11-.96 1.98-.06.87.54 1.38t1.65.6v.6q-.54-.03-1.32-.03-.75-.03-1.47-.03-.72-.03-1.2-.03-.69 0-1.23.03-.51 0-.96.06v-.6q.66-.18 1.29-.69.63-.54 1.44-1.56zm8.16-8.07v.6q-.6.18-1.29.75-.69.54-1.41 1.5l-3.39 4.38-.06-.18a2 2 0 0 0-.09-.39l-.03-.18 1.8-2.43q.75-.99.93-1.74t-.24-1.17q-.42-.45-1.5-.54v-.6q.84.03 1.59.06.78.03 1.53.03.66 0 1.17-.03.54-.03.99-.06m8.692-.42q2.64 0 4.14 1.59t1.5 5.07h-10.11l-.03-.57h6.66q.06-1.47-.18-2.7-.24-1.26-.78-2.01-.51-.75-1.35-.75-1.14 0-1.98 1.35-.84 1.32-1.05 4.35l.12.18q-.06.39-.09.84v.9q0 2.07.6 3.42t1.56 1.98 1.98.63q.69 0 1.41-.21t1.41-.78 1.26-1.62l.57.24q-.33 1.05-1.11 2.1-.75 1.02-1.95 1.68t-2.82.66q-2.04 0-3.6-.9t-2.43-2.67q-.87-1.8-.87-4.38 0-2.73.9-4.59.93-1.86 2.55-2.82 1.62-.99 3.69-.99M17.502 32.312c.277.008.554.006.83.006.674-.002.674-.003.666-.654 0-.077-.008-15.318-.01-15.451-.003-.236-.08-.311-.298-.155-.315.224-.63.454-.963.649-.358.21-.472.491-.47.903.013 3.955.042 13.59-.027 14.452-.016.2.116.246.272.25m-2.362-4.776q-.002-.55.002-1.097c.001-.2-.07-.314-.29-.31-.398.007-.797.005-1.196.006-.197 0-.315.081-.315.294l-.001 2.226c0 .195.094.28.286.28.387 0 .775-.004 1.163.011.255.01.364-.09.358-.347-.01-.354-.003-.709-.003-1.063zm-.296-7.766q-.598.006-1.195 0c-.207 0-.306.1-.307.303l-.015 2.159c-.002.236.113.338.348.336q.564-.007 1.129.003c.237.003.343-.105.34-.342-.007-.354-.002-.708-.003-1.063 0-.365-.004-.73.001-1.096.003-.208-.086-.304-.298-.3M8.285 41.209h.137q-.067-.146-.137 0m14.016-24.502c-.333-.195-.648-.425-.963-.65-.218-.155-.295-.08-.298.156-.002.133-.01 15.374-.01 15.451-.008.65-.008.652.665.653.277.001.554.003.83-.005.157-.004.289-.05.273-.25-.069-.862-.04-10.497-.026-14.452.001-.412-.113-.694-.47-.903m2.938 12.239c.387-.015.775-.011 1.162-.01.192 0 .287-.086.286-.28q-.003-1.114-.001-2.227c0-.213-.118-.294-.315-.294-.399-.001-.798.001-1.196-.006-.22-.004-.291.11-.29.31q.004.549.002 1.097h-.004c0 .354.007.709-.003 1.063-.006.257.102.357.358.347m-.015-6.376q.564-.008 1.13-.002c.233.003.35-.1.347-.336l-.015-2.159c-.001-.203-.1-.303-.307-.302-.398.002-.797.004-1.195-.002-.212-.003-.301.093-.298.301.005.366.001.731 0 1.096 0 .355.004.709-.001 1.063-.004.237.102.345.339.342m6.382 18.639.136-.001q-.067-.145-.136 0M20.014 6.746c-.279.977-.866 1.673-1.887 1.93.466.137.882.281 1.206.606.327.328.496.764.681 1.2.185-.436.354-.872.681-1.2.324-.325.74-.469 1.207-.606-1.022-.257-1.61-.953-1.888-1.93m0 .08c.005.031.01.062 0 .093a.2.2 0 0 1 0-.094m0 3.57c-.005-.036-.01-.072 0-.107.01.035.005.07 0 .107"/><path fill="#fff" d="M37.63 30.623c-1.898 2.263-4.7 3.304-5.566 3.209-.66-.072-23.44-.072-24.1 0-.866.095-3.668-.946-5.566-3.209-.052-.062-.1-.154-.232-.106.01.04.015.08.03.118.452 1.12 1.096 2.126 1.86 3.054 1.35 1.64 2.965 2.976 4.779 4.075.626.38 1.262.764 1.908 1.134a18.9 18.9 0 0 0 9.259 2.482h.024a18.9 18.9 0 0 0 9.259-2.482 92 92 0 0 0 1.908-1.134c1.814-1.099 3.43-2.434 4.78-4.075.763-.928 1.406-1.934 1.858-3.054.015-.037.02-.078.03-.118-.13-.048-.179.044-.23.106m-16.435 8.212c-.397.022-1.966.022-2.362 0-3.092-.173-6.005-1.013-8.607-2.75l.017-.09h19.542l.017.09c-2.602 1.737-5.515 2.577-8.607 2.75"/><path fill="#fff" d="M39.709 21.957c.478-1.28.361-2.567.025-3.852a.9.9 0 0 1-.003-.516c.57-1.857.114-3.492-1.094-4.959a3 3 0 0 0-.18-.195c-.023-.023-.055-.036-.144-.095.017.449.12.833.135 1.227.08 1.972-.592 3.646-1.955 5.055-1.006 1.04-2.186 1.799-3.595 2.168q-.72.188-1.454.309c-.449.075-.553-.032-.553-.482l-.002-5.618c0-.122 0-.244-.016-.365-.01-.086-.027-.151-.165-.141-1.094.077-2.191.024-3.287.028-.343.002-.673-.11-.98-.274-.525-.279-1.87-.977-2.002-1.137.649-.093 4.49-.107 5.796-.074.198.005.2-.096.196-.253-.026-.974-.05-1.953.182-2.908.292-1.2.847-2.257 1.804-3.07.16-.137.33-.26.528-.326.05.025.036.055.02.084-.388.706-.351 1.192.132 1.734.404.452 1.18.607 1.78.354.744-.314 1.249-1.222 1.158-2.028-.178-1.596-1.481-2.51-3.092-2.362-1.727.16-2.825 1.259-3.664 2.712-.135.235-.235.487-.336.738-.079.193-.19.231-.39.205a9.03 9.03 0 0 1-4.874-2.171 6.4 6.4 0 0 1-1.482-1.817c-.077-.145-.065-.219.07-.328.92-.738.72-2.077-.37-2.526a3 3 0 0 0-.502-.17c-.387-.081-.834-.494-1.111-.788a.37.37 0 0 0-.54 0c-.277.294-.724.707-1.111.787a3 3 0 0 0-.503.171c-1.09.449-1.289 1.788-.37 2.526.136.11.148.183.07.328-.375.703-.885 1.3-1.48 1.817a9.03 9.03 0 0 1-4.875 2.171c-.2.026-.312-.012-.39-.205-.102-.251-.2-.503-.336-.738-.84-1.453-1.937-2.552-3.664-2.712-1.611-.149-2.914.766-3.093 2.362-.09.806.415 1.714 1.159 2.028.6.253 1.376.098 1.78-.354.483-.542.52-1.028.132-1.734-.016-.029-.03-.059.02-.084.197.066.367.189.528.325.957.814 1.512 1.87 1.804 3.071.232.955.208 1.934.182 2.908-.005.157-.002.258.195.253 1.307-.033 5.148-.02 5.797.074-.131.16-1.477.858-2.002 1.137-.307.164-.637.276-.98.274-1.096-.004-2.193.05-3.287-.028-.138-.01-.155.055-.165.141-.015.12-.016.243-.016.365l-.002 5.618c0 .45-.104.557-.553.482a17 17 0 0 1-1.454-.309c-1.41-.37-2.589-1.128-3.595-2.168-1.363-1.409-2.035-3.083-1.955-5.055.016-.394.118-.778.135-1.227-.09.059-.12.072-.143.095a3 3 0 0 0-.18.195C.181 14.097-.273 15.732.295 17.59a.9.9 0 0 1-.002.516c-.336 1.285-.453 2.571.025 3.852.065.173.047.342 0 .512-.138.506-.258 1.018-.276 1.542-.057 1.663.499 3.117 1.477 4.417.155.207 3.688 3.45 5.217 3.746 1.595.309 2.376-.135 3.985-.002.23.02.316-.079.316-.307 0-.807 0-12.86.041-14.908.005-.265.153-.381.399-.385q1.079-.014 2.157-.018c.156-.002.308-.011.453-.083 1.078-.537 4.811-2.632 5.607-3.125a.48.48 0 0 1 .307-.08h.024c.1-.01.2.013.308.08.795.493 4.528 2.588 5.607 3.125.145.072.296.081.452.083q1.08.005 2.157.018c.246.004.394.12.4.385.04 2.049.04 14.1.04 14.908 0 .228.086.326.316.307 1.61-.133 2.39.311 3.985.002 1.53-.295 5.062-3.54 5.217-3.746.978-1.3 1.534-2.754 1.477-4.417-.018-.524-.138-1.036-.276-1.542-.047-.17-.065-.339 0-.512M8.494 29.69c-1.032-.116-2.03-.385-2.949-.865-1.177-.616-2.225-1.417-2.955-2.55-.394-.612-.778-1.245-.905-1.994.113 0 .154.08.187.139.439.77 1.222 1.134 1.908 1.604 1.434.98 3.056 1.374 4.771 1.435.58.02.585.02.585.61v1.592c-.102.039-.494.046-.642.029m.644-5.924c-.013.187-.003.376-.003.564h-.001v.266c-.005.643-.004.633-.635.554-.914-.114-1.823-.263-2.666-.647-3.272-1.383-4.126-4.152-3.97-4.239 3.27 3.075 6.232 3.063 6.927 3.11.278.02.367.133.348.392m2.415-12.827c-.233.014-.336-.072-.347-.32-.03-.698-.037-.673.654-.733 2.76-.239 5.05-1.392 6.795-3.564.465-.58.841-1.22 1.124-1.911.046-.11.097-.217.223-.29v.036l.012-.027.012.027v-.036c.126.073.177.18.222.29.284.69.66 1.331 1.125 1.91 1.745 2.173 4.036 3.326 6.795 3.565.69.06.683.034.654.732-.01.249-.114.334-.347.321-.342-.019-16.58-.019-16.922 0m19.685 12.435c.695-.047 3.656-.035 6.927-3.11.156.087-.697 2.856-3.97 4.239-.843.384-1.752.532-2.666.647-.631.079-.63.09-.635-.554v-.266h-.002c0-.188.011-.377-.002-.564-.019-.26.07-.373.348-.392m6.2 2.9c-.73 1.134-1.778 1.935-2.956 2.55-.918.48-1.916.75-2.948.866-.148.017-.54.01-.642-.03v-1.59c0-.589.005-.588.584-.61 1.716-.06 3.338-.454 4.771-1.434.687-.47 1.47-.834 1.908-1.604.034-.06.075-.14.188-.139-.127.749-.511 1.382-.905 1.993"/></svg>