<svg xmlns="http://www.w3.org/2000/svg" width="248" height="51" fill="none" viewBox="0 0 248 51"><g clip-path="url(#a)"><path fill="#fff" d="M124 23.145 113.031 36.98 124 51l10.969-14.02z"/><path fill="#fff" d="M30.283 20.341c-1.347.187-2.502.56-3.849.748-1.154.56-2.309.935-3.463 1.495-4.619 1.683-8.468 4.3-11.547 6.73-2.886 2.618-5.196 5.235-6.735 7.665C1.418 41.653.455 44.831.455 44.831s.963-3.178 4.042-7.852c1.539-2.43 3.848-5.047 6.735-7.851 3.079-2.618 6.735-5.422 11.546-7.104 1.155-.561 2.31-1.122 3.656-1.496s2.502-.56 3.85-.935c2.5-.56 5.387-.56 8.274-.934 2.886-.187 5.773.187 8.852.373 2.887.187 5.966 1.122 9.045 1.496 5.965 1.496 12.316 3.365 18.281 5.982 6.158 2.43 11.931 5.235 18.474 6.917 6.35 1.683 13.086 2.243 19.436 1.683 4.041-.561 7.698-1.496 11.354-2.991 3.656 1.308 7.505 2.43 11.354 2.99 6.35.749 13.086 0 19.436-1.682 6.35-1.495 12.316-4.3 18.474-6.73 5.965-2.617 12.316-4.486 18.281-5.982 3.079-.56 6.158-1.309 9.045-1.496 3.079 0 5.966-.56 8.852-.373 2.887.373 5.773.186 8.275.934 1.347.374 2.694.561 3.849.935 1.347.374 2.501.935 3.656 1.309 4.811 1.682 8.467 4.486 11.546 7.104 2.887 2.804 5.196 5.42 6.735 7.851 3.079 4.86 4.042 7.852 4.042 7.852s-.963-3.178-4.234-7.852c-1.539-2.43-3.849-5.047-6.928-7.665-3.079-2.43-6.735-5.047-11.546-6.73-1.155-.373-2.309-.934-3.464-1.308-1.347-.374-2.501-.561-3.849-.748-2.501-.748-5.388-.748-8.082-.935-2.886-.187-5.773.187-8.66.374-2.886.374-5.965 1.122-9.044 1.496a115 115 0 0 0-18.089 6.169c-5.966 2.43-11.931 5.421-18.474 6.917-6.543 1.682-13.278 2.243-19.821 1.495-3.849-.373-7.698-1.495-11.162-2.804-3.848 1.309-7.505 2.244-11.546 2.617-6.543.748-13.47.187-19.82-1.495-6.544-1.496-12.51-4.487-18.475-6.917-5.965-2.617-12.123-4.487-18.089-6.17-3.079-.373-5.965-1.12-9.044-1.495-2.887 0-5.774-.56-8.66-.374-2.887.374-5.58.187-8.275.935"/><path fill="#fff" d="M45.486 31.745c-4.811-1.683-1.155-5.609 1.154-1.309-2.117-4.3 3.272-4.674 1.732 0 1.54-4.487 5.773-.935 1.155 1.122 4.041-1.87 4.618 2.243 1.154 1.87.77.186 1.54.373 2.502.747 4.041 1.309 9.622 2.991 16.55 4.3 6.927 1.308 15.202 2.43 23.862 2.43s18.089-1.496 26.749-4.674c1.154-.56 2.309-1.495 3.656-1.495s2.502 1.122 3.656 1.495c8.66 3.365 17.897 4.674 26.749 4.674s16.935-.935 23.862-2.43c6.928-1.496 12.701-2.991 16.55-4.3.962-.187 1.732-.56 2.502-.935-3.464.374-2.887-3.739 1.154-1.87-4.426-2.056-.385-5.608 1.347-1.12-1.732-4.488 3.849-4.3 1.732 0 2.117-4.3 5.773-.375 1.155 1.308 4.618-1.683 4.426 3.739-.193 1.682 4.426 2.057.385 5.609-1.154 1.122 1.732 4.487-3.849 4.3-1.732 0-1.732 3.739-4.619 1.308-2.694-.374-.578.187-1.155.56-1.732.748-3.849 1.682-9.43 3.739-16.357 5.421-6.928 1.683-15.203 3.365-24.247 3.552-9.237.187-19.052-1.122-28.096-4.487-.963-.373-1.54-.934-2.502-.934s-1.54.56-2.309.934c-9.237 3.365-19.052 4.674-28.096 4.487-9.045 0-17.32-1.87-24.247-3.552-6.928-1.495-12.509-3.739-16.357-5.421-.77-.374-1.347-.561-1.925-.748 1.925 1.682-.77 3.926-2.694.374 2.117 4.3-3.271 4.673-1.732 0-1.54 4.487-5.58 1.122-1.154-1.122-4.426 2.244-4.811-3.178 0-1.495"/><g clip-path="url(#b)"><path fill="#fff" d="M96.72 12.284 94.252 17.3l-5.518.8 3.993 3.908-.944 5.512 4.937-2.601 4.937 2.601-.944-5.512 3.993-3.902-5.518-.806z"/></g><path fill="#fff" d="m123.38 1.4-3.35 6.45-7.488 1.03 5.419 5.023-1.281 7.088 6.7-3.345 6.7 3.345-1.281-7.088 5.419-5.017-7.488-1.035z"/><g clip-path="url(#c)"><path fill="#fff" d="m148.8 13.527-2.468 5.018-5.518.8 3.993 3.907-.944 5.513 4.937-2.601 4.937 2.601-.944-5.513 3.993-3.901-5.518-.806z"/></g></g><defs><clipPath id="a"><path fill="#fff" d="M0 0h248v51H0z"/></clipPath><clipPath id="b"><path fill="#fff" d="M88.04 11.195h17.36V28.61H88.04z"/></clipPath><clipPath id="c"><path fill="#fff" d="M140.12 12.439h17.36v17.415h-17.36z"/></clipPath></defs></svg>