<svg xmlns="http://www.w3.org/2000/svg" width="42" height="42" fill="none" viewBox="0 0 42 42"><g clip-path="url(#a)"><path fill="#d46539" d="M37.8 23.8h-.7v-9.1a3.504 3.504 0 0 0-3.5-3.5h-4.315l1.47-6.463a1.67 1.67 0 0 0-.464-1.58 1.65 1.65 0 0 0-1.564-.42l-3.47.877-3.076-3.12a1.695 1.695 0 0 0-2.362 0l-3.076 3.12-3.472-.88a1.65 1.65 0 0 0-1.564.42 1.67 1.67 0 0 0-.464 1.58l1.472 6.466H8.4a3.504 3.504 0 0 0-3.5 3.5v9.1h-.7A4.204 4.204 0 0 0 0 28v9.1a2.1 2.1 0 0 0 2.1 2.1v.7A2.1 2.1 0 0 0 4.2 42h1.4a2.1 2.1 0 0 0 2.1-2.1v-.7h26.6v.7a2.1 2.1 0 0 0 2.1 2.1h1.4a2.1 2.1 0 0 0 2.1-2.1v-.7a2.1 2.1 0 0 0 2.1-2.1V28a4.204 4.204 0 0 0-4.2-4.2M12.685 4.158a.25.25 0 0 1 .243-.066l3.859.98a.7.7 0 0 0 .67-.187l3.36-3.405a.225.225 0 0 1 .369 0l3.36 3.405a.7.7 0 0 0 .67.187l3.858-.98a.25.25 0 0 1 .244.066.28.28 0 0 1 .077.268L28.49 8.4H13.51l-.902-3.974a.28.28 0 0 1 .077-.268M13.83 9.8h14.34l-.319 1.4h-13.7zM6.3 14.7a2.1 2.1 0 0 1 2.1-2.1h25.2a2.1 2.1 0 0 1 2.1 2.1v9.1h-1.529c.083-.224.127-.461.129-.7v-4.2a2.1 2.1 0 0 0-2.1-2.1h-8.4a2.1 2.1 0 0 0-2.1 2.1v4.2c.002.239.046.476.129.7H20.17c.083-.224.127-.461.129-.7v-4.2a2.1 2.1 0 0 0-2.1-2.1H9.8a2.1 2.1 0 0 0-2.1 2.1v4.2c.002.239.046.476.129.7H6.3zm16.8 8.4v-4.2a.7.7 0 0 1 .7-.7h8.4a.7.7 0 0 1 .7.7v4.2a.7.7 0 0 1-.7.7h-8.4a.7.7 0 0 1-.7-.7m-14 0v-4.2a.7.7 0 0 1 .7-.7h8.4a.7.7 0 0 1 .7.7v4.2a.7.7 0 0 1-.7.7H9.8a.7.7 0 0 1-.7-.7M6.3 39.9a.7.7 0 0 1-.7.7H4.2a.7.7 0 0 1-.7-.7v-.7h2.8zm32.2 0a.7.7 0 0 1-.7.7h-1.4a.7.7 0 0 1-.7-.7v-.7h2.8zm2.1-2.8a.7.7 0 0 1-.7.7H2.1a.7.7 0 0 1-.7-.7V28a2.8 2.8 0 0 1 2.8-2.8h33.6a2.8 2.8 0 0 1 2.8 2.8z"/></g><defs><clipPath id="a"><path fill="#fff" d="M0 0h42v42H0z"/></clipPath></defs></svg>