<svg xmlns="http://www.w3.org/2000/svg" width="44" height="44" fill="none" viewBox="0 0 44 44"><g fill="#d46539" clip-path="url(#a)"><path d="M43.113 30.286a6.1 6.1 0 0 1-2.73-.255 5.2 5.2 0 0 1-1.987-1.226 3.82 3.82 0 0 0-2.043-1.114 1.4 1.4 0 0 0-.181 0l-.726-1.107q.623.14 1.262.144a5.8 5.8 0 0 0 3.186-.877 5.9 5.9 0 0 0 2.21-2.477 5.96 5.96 0 0 0-.782-6.347 5.86 5.86 0 0 0-2.745-1.854 5.8 5.8 0 0 0-3.302-.062 5.85 5.85 0 0 0-2.811 1.75 5.94 5.94 0 0 0-1.427 3.006l-4.086-6.24a.34.34 0 0 1 0-.367.3.3 0 0 1 .268-.175h6.846c.93 0 1.82-.372 2.477-1.035a3.55 3.55 0 0 0 1.026-2.499 3.55 3.55 0 0 0-1.026-2.499 3.5 3.5 0 0 0-2.477-1.035H20.492c-.487 0-.967.122-1.397.352s-.798.563-1.072.97a3.12 3.12 0 0 0-.307 2.897l3.785 9.599a1.5 1.5 0 0 1-.48 1.759l-8.385 6.368a3.7 3.7 0 0 0-.718 0 3.7 3.7 0 0 0-1.633.62q-.733.46-1.53.796c-1.286.53-2.646.855-4.03.963a.8.8 0 0 0-.535.28.8.8 0 0 0-.1.88.79.79 0 0 0 .769.432 15.1 15.1 0 0 0 4.496-1.082 12 12 0 0 0 1.727-.868 2.25 2.25 0 0 1 1.025-.414c.939-.12 1.515.335 2.312.956a5.97 5.97 0 0 0 3.052 1.48 4.7 4.7 0 0 0 1.97-.28 4.7 4.7 0 0 0 1.682-1.073 4.54 4.54 0 0 1 2.824-1.242 4.8 4.8 0 0 1 3.155 1.242 5.54 5.54 0 0 0 3.313 1.36q.348.002.694-.055a5.8 5.8 0 0 0 3.155-1.75c.741-.685 1.16-1.036 1.83-.932.478.116.91.377 1.238.748a6.9 6.9 0 0 0 2.532 1.536 7.75 7.75 0 0 0 3.415.327.78.78 0 0 0 .55-.294.8.8 0 0 0 .168-.606.8.8 0 0 0-.297-.537.8.8 0 0 0-.586-.163m-6.405-13.802a4.26 4.26 0 0 1 2.409.673 4.3 4.3 0 0 1 1.626 1.916 4.36 4.36 0 0 1-.857 4.747 4.27 4.27 0 0 1-2.19 1.215 4.25 4.25 0 0 1-2.49-.227 4.3 4.3 0 0 1-1.94-1.59 4.35 4.35 0 0 1-.73-2.412 4.3 4.3 0 0 1 1.198-3.033 4.2 4.2 0 0 1 2.974-1.289M33.222 29.06a4.24 4.24 0 0 1-2.304 1.345c-1.167.183-1.916-.35-2.863-1.027a6.28 6.28 0 0 0-4.133-1.536 6.1 6.1 0 0 0-3.739 1.592c-.836.653-1.443 1.13-2.524.995a4.5 4.5 0 0 1-2.28-1.154 10 10 0 0 0-.93-.677l7.517-5.683a3.1 3.1 0 0 0 1.108-1.64 3.12 3.12 0 0 0-.106-1.981l-3.786-9.6a1.5 1.5 0 0 1 .15-1.408 1.37 1.37 0 0 1 1.159-.717H34.05c.51 0 1 .205 1.36.57a1.95 1.95 0 0 1 0 2.746c-.36.364-.85.569-1.36.569h-6.847a1.9 1.9 0 0 0-.97.273 1.9 1.9 0 0 0-.694.737 1.97 1.97 0 0 0 .095 1.998l8.897 13.555a6.7 6.7 0 0 0-1.31 1.043m6.874 6.98a5.6 5.6 0 0 1-2.727-.292 5.24 5.24 0 0 1-1.986-1.376c-.547-.672-1.26-1.13-2.042-1.312-1.443-.256-2.365.692-3.153 1.521-.61.785-1.418 1.328-2.31 1.55-1.166.2-1.907-.41-2.853-1.176-1.152-1.138-2.616-1.764-4.13-1.768-1.39.094-2.71.737-3.737 1.823-.836.747-1.45 1.285-2.522 1.13-.854-.178-1.645-.637-2.278-1.322a4.4 4.4 0 0 0-1.588-1.174 3.9 3.9 0 0 0-1.865-.311 3.46 3.46 0 0 0-1.632.71q-.73.533-1.529.912a11.9 11.9 0 0 1-4.012 1.076.76.76 0 0 0-.54.318 1 1 0 0 0-.185.666.97.97 0 0 0 .275.623c.16.157.367.235.576.215a13.4 13.4 0 0 0 4.5-1.24 11.7 11.7 0 0 0 1.759-.993c.3-.253.649-.415 1.017-.473.945-.137 1.52.382 2.317 1.093.852.898 1.912 1.487 3.05 1.695a4.1 4.1 0 0 0 1.98-.286 4.6 4.6 0 0 0 1.694-1.218c.762-.829 1.747-1.33 2.79-1.421 1.167.017 2.288.526 3.153 1.43.932.936 2.104 1.49 3.335 1.577q.349.001.693-.064c1.208-.26 2.312-.96 3.153-1.995.741-.784 1.151-1.194 1.83-1.067.478.127.91.424 1.237.848a6.8 6.8 0 0 0 2.53 1.768 6.9 6.9 0 0 0 3.405.364.7.7 0 0 0 .295-.11.8.8 0 0 0 .236-.23 1 1 0 0 0 .141-.319 1.05 1.05 0 0 0-.069-.698.9.9 0 0 0-.2-.273.8.8 0 0 0-.276-.163.7.7 0 0 0-.308-.03zM6.813 14.017h6.38a.74.74 0 0 0 .573-.293 1.13 1.13 0 0 0 .237-.707c0-.265-.085-.52-.237-.707a.74.74 0 0 0-.573-.293h-6.38a.74.74 0 0 0-.573.293 1.13 1.13 0 0 0-.237.707c0 .265.085.52.237.707a.74.74 0 0 0 .573.293m-2.997 3h6.374a.74.74 0 0 0 .575-.293c.152-.187.238-.442.238-.707s-.086-.52-.238-.707a.75.75 0 0 0-.575-.293H3.816a.75.75 0 0 0-.575.293 1.13 1.13 0 0 0-.238.707c0 .265.086.52.238.707.153.188.36.293.575.293"/><path d="M12.003 16.017c0 .265.08.52.225.707.144.188.34.293.543.293h2.464c.204 0 .4-.105.543-.293a1.17 1.17 0 0 0 .225-.707c0-.265-.08-.52-.225-.707-.144-.187-.34-.293-.543-.293h-2.464a.69.69 0 0 0-.543.293 1.17 1.17 0 0 0-.225.707m-.757 4c.201 0 .393-.105.535-.293.142-.187.222-.442.222-.707s-.08-.52-.222-.707-.334-.293-.535-.293H.76c-.201 0-.393.106-.535.293a1.2 1.2 0 0 0-.222.707c0 .265.08.52.222.707.142.188.334.293.535.293z"/></g><defs><clipPath id="a"><path fill="#fff" d="M0 0h44v44H0z"/></clipPath></defs></svg>