<svg xmlns="http://www.w3.org/2000/svg" width="42" height="42" fill="none" viewBox="0 0 42 42"><g fill="#d46539" clip-path="url(#a)"><path d="M37.146 17.875c1.705-.09 3.07-1.814 3.07-3.918 0-1.92-1.136-3.523-2.63-3.858v-.501q.211-.202.382-.45a.6.6 0 0 0 .103-.397A9.6 9.6 0 0 0 35 2.48a9.65 9.65 0 0 0-6.564-2.561h-2.669c-5.332 0-9.67 4.324-9.67 9.638v.135c0 .19.088.371.24.488q.327.25.741.415l.067.024V15.1c0 2.742.916 5.042 2.649 6.652a8 8 0 0 0 1.696 1.203 7 7 0 0 0-.72.832 6.4 6.4 0 0 1-2.902.463v-1.949c0-.629-.514-1.14-1.145-1.14H15.8a1.777 1.777 0 0 0-1.78-1.754h-3.39c-.977 0-1.772.785-1.78 1.754h-.922c-.631 0-1.145.511-1.145 1.14v8.623H2.95c-.632 0-1.145.511-1.145 1.14v8.713c0 .629.513 1.14 1.145 1.14h22.284a.6.6 0 0 0 .137-.016c.493-.053.94-.258 1.293-.565.353.307.8.511 1.292.565q.067.015.14.016h7.076c1.612 0 2.923-1.302 2.923-2.902a2.91 2.91 0 0 0-2.448-2.863v-1.208a.615.615 0 1 0-1.231 0v1.17H30.43a2.36 2.36 0 0 0-2.216-1.534 2.36 2.36 0 0 0-1.55.578 2.36 2.36 0 0 0-1.55-.578 2.36 2.36 0 0 0-2.215 1.533h-.158V34.41q.664.086 1.326.086c3.882 0 7.627-2.15 9.45-5.838.269-.544.309-1.16.112-1.732a2.25 2.25 0 0 0-1.157-1.302 2.295 2.295 0 0 0-3.047 1.044 5.87 5.87 0 0 1-2.4 2.526.615.615 0 1 0 .603 1.074 7.1 7.1 0 0 0 2.9-3.054 1.06 1.06 0 0 1 1.409-.481 1.024 1.024 0 0 1 .477 1.38c-1.817 3.676-5.797 5.616-9.673 5.052v-.132a2.83 2.83 0 0 0 .57-1.883q.631.071 1.268.028a.616.616 0 0 0-.084-1.228 6 6 0 0 1-1.596-.11l-.056-.087-.628-1.643a1.3 1.3 0 0 0-1.52-.797c.159-1.56.88-2.878 2.013-3.824a10 10 0 0 0 1.737.437 2.61 2.61 0 0 0 2.55 2.034 2.61 2.61 0 0 0 2.53-1.953 9 9 0 0 0 2.651-.693c1.407 1.064 2.24 2.663 2.24 4.576v4.183a.615.615 0 0 0 1.23 0V27.89c0-2.085-.79-3.878-2.285-5.197a8.95 8.95 0 0 0 3.785-4.82M27.084 36.927c0-.615.507-1.115 1.13-1.115.576 0 1.058.425 1.123.988.036.31.299.545.611.545h5.224c.934 0 1.693.75 1.693 1.671 0 .922-.76 1.672-1.693 1.672H28.18l-.043-.005a1.123 1.123 0 0 1-1.053-1.11zm-4.343.418h.64a.615.615 0 0 0 .61-.545 1.124 1.124 0 0 1 1.124-.988c.341 0 .647.15.855.387q-.116.346-.117.728v2.646q.002.38.117.725a1.13 1.13 0 0 1-.821.39h-2.408zm-4.873-11.86q.23.014.463.015.813-.002 1.589-.168a7.2 7.2 0 0 0-.483 2.383 10 10 0 0 1-1.57.049zm.1 9.325c.07 0 .226.088.262.149l.768 1.317c.034.06.034.23 0 .29l-.768 1.318a.44.44 0 0 1-.263.149h-1.535a.44.44 0 0 1-.263-.15l-.768-1.317a.42.42 0 0 1 0-.29l.768-1.317a.44.44 0 0 1 .263-.15zM10.63 20.64h3.39c.298 0 .54.233.55.523h-4.49a.545.545 0 0 1 .55-.523m-2.616 1.753h8.622v8.533H8.015zm3.643 18.296H3.035v-8.533h8.623zm9.853 0h-8.623v-8.533h4.15c-.028.087-.05.177-.058.27l-.018.171c-.037.376.098.73.34.983h-.87c-.512 0-1.07.32-1.327.76l-.767 1.318a1.6 1.6 0 0 0 0 1.529l.767 1.318c.257.44.815.76 1.327.76h1.535c.512 0 1.07-.32 1.326-.76l.768-1.318a1.6 1.6 0 0 0 0-1.529l-.768-1.318q-.09-.151-.22-.281l1.04.105q.15.015.3.015c.388 0 .759-.075 1.098-.21zm-.76-11.284a.62.62 0 0 0 .085-.587l-.061-.161a.06.06 0 0 1 .001-.048.06.06 0 0 1 .036-.033l.172-.065.022-.004c.004 0 .043.001.06.043l.654 1.712a.6.6 0 0 0 .072.134c.223.318.325.704.287 1.085-.084.836-.8 1.467-1.665 1.467a2 2 0 0 1-.177-.009l-2.039-.205a.013.013 0 0 1-.011-.013l.017-.17c0-.01.01-.012.014-.012l1.472.148a.615.615 0 0 0 .674-.55l.011-.11a.614.614 0 0 0-.55-.674l-1.798-.181c-.005 0-.012-.008-.01-.014l.016-.17c.001-.01.01-.01.014-.012l1.797.181a.62.62 0 0 0 .674-.55l.011-.11a.615.615 0 0 0-.55-.674l-1.473-.148c-.006 0-.012-.008-.011-.014l.017-.17c0-.01.01-.01.014-.012l1.669.168.015.002a.61.61 0 0 0 .542-.244m6.243-4.674c-.508 0-.953-.273-1.192-.678q.165.005.33.005h2.052c-.24.403-.683.674-1.19.674m1.605-1.904h-2.467c-4.712 0-7.756-3.032-7.756-7.725v-4.305c.62-.055 1.216-.33 1.767-.825q.153-.137.3-.296.054.176.13.336c.261.545.725.928 1.342 1.108 1.001.292 2.013-.138 3.018-1.28.252.598.765 1.038 1.52 1.276q.495.156.983.156c1.076 0 2.107-.571 3.024-1.687a8.5 8.5 0 0 0 .77-1.118c.26.358.607.756 1.046 1.105a.616.616 0 0 0 .765-.964c-.864-.686-1.283-1.653-1.286-1.661a.62.62 0 0 0-.568-.378h-.005a.62.62 0 0 0-.566.387c-.015.038-1.506 3.708-3.794 2.986-.564-.178-1.09-.53-.717-1.8a.615.615 0 0 0-1.118-.49c-.999 1.668-1.992 2.502-2.727 2.287-.284-.083-.467-.23-.578-.46-.218-.454-.142-1.225.203-2.06a.615.615 0 0 0-1.124-.5c-1.529 3.206-2.809 2.699-3.23 2.532a2 2 0 0 1-.202-.093c.107-4.544 3.85-8.209 8.438-8.209h2.67c4.277 0 7.916 3.264 8.385 7.473a1.5 1.5 0 0 1-.64.425q-.384.136-.748.194a.615.615 0 1 0 .192 1.215 5 5 0 0 0 .73-.17v.366a.615.615 0 0 0 .615.615l.04-.001c1.09.005 1.974 1.21 1.974 2.692s-.889 2.69-1.98 2.69q-.105 0-.22-.016a.615.615 0 0 0-.687.45c-.898 3.383-3.981 5.746-7.498 5.746"/><path d="M30.489 12.764a.615.615 0 0 0-.615.615v1.01a.615.615 0 1 0 1.23 0v-1.01a.615.615 0 0 0-.615-.615m-9.09 0a.615.615 0 0 0-.616.615v1.01a.615.615 0 1 0 1.23 0v-1.01a.615.615 0 0 0-.614-.615m4.544 3.126h.4a.615.615 0 1 0 0-1.231h-.183v-.571a.615.615 0 1 0-1.23 0v.776a1.02 1.02 0 0 0 1.013 1.025m2.427.974h-4.575c-.631 0-1.145.511-1.145 1.14 0 1.878 1.54 3.407 3.432 3.407 1.893 0 3.433-1.529 3.433-3.407 0-.628-.514-1.14-1.145-1.14m-2.288 3.316c-1.183 0-2.152-.927-2.2-2.086h4.4c-.047 1.159-1.016 2.086-2.2 2.086m-11.377 5.078-1.078-.154-.48-.96a.91.91 0 0 0-.821-.505.91.91 0 0 0-.82.505l-.481.96-1.08.155a.911.911 0 0 0-.505 1.56l.775.744-.182 1.049a.913.913 0 0 0 .902 1.068.9.9 0 0 0 .424-.103l.967-.5.963.498a.92.92 0 0 0 .962-.066.92.92 0 0 0 .368-.897l-.182-1.05.774-.743a.914.914 0 0 0-.506-1.56m-1.357 1.644a.61.61 0 0 0-.18.55l.13.742-.69-.357a.61.61 0 0 0-.565 0l-.689.357.13-.743a.62.62 0 0 0-.18-.549l-.54-.518.754-.107a.62.62 0 0 0 .462-.334l.346-.69.345.69c.09.18.264.305.463.334l.754.107zM6.74 39.045a.86.86 0 0 0 .606.246.86.86 0 0 0 .607-.246l2.202-2.154c.377-.37.585-.861.585-1.386s-.208-1.017-.585-1.386a2 2 0 0 0-1.398-.568c-.527 0-1.024.202-1.398.568l-.013.012-.012-.012a2 2 0 0 0-1.398-.568c-.527 0-1.024.202-1.398.568-.377.369-.585.861-.585 1.386s.208 1.017.585 1.386zm-1.342-4.047a.76.76 0 0 1 .538-.216c.204 0 .395.077.537.216l.443.434a.616.616 0 0 0 .86 0l.443-.433a.76.76 0 0 1 .538-.217c.204 0 .394.077.537.216a.704.704 0 0 1 0 1.014l-1.948 1.904-1.948-1.904a.7.7 0 0 1 0-1.014m31.554-19.114a.6.6 0 0 0 .292-.074c1.314-.71 1.1-2.198.802-2.885a.615.615 0 1 0-1.13.489c.018.038.405.956-.257 1.314a.615.615 0 0 0 .293 1.156"/></g><defs><clipPath id="a"><path fill="#fff" d="M0 0h42v42H0z"/></clipPath></defs></svg>