<svg xmlns="http://www.w3.org/2000/svg" width="42" height="42" fill="none" viewBox="0 0 42 42"><g fill="#d46539" clip-path="url(#a)"><path d="M40.688 34.125a3.25 3.25 0 0 0-.773-2.089 12.5 12.5 0 0 0 1.429-5.786c0-4.892-2.886-9.352-7.353-11.364a1.99 1.99 0 0 1-1.178-1.8v-.617h.656a1.97 1.97 0 0 0 1.968-1.969c0-.506-.197-.963-.511-1.312.315-.35.511-.807.511-1.313a1.97 1.97 0 0 0-1.968-1.969h-.657V2.625A1.97 1.97 0 0 0 30.845.656h-3.938a1.97 1.97 0 0 0-1.968 1.969v3.281h-.657a1.97 1.97 0 0 0-1.968 1.969c0 .506.197.963.511 1.313a1.95 1.95 0 0 0-.512 1.312c0 1.085.884 1.969 1.97 1.969h.656v.619c0 .773-.445 1.47-1.134 1.777a12.55 12.55 0 0 0-7.15 8.916c-1.357-.534-3.125-.812-4.841-.812-3.5 0-7.22 1.15-7.22 3.281 0 .6.303 1.118.803 1.559-2.196.72-3.427 1.792-3.427 3.035 0 1.041.849 1.884 2.168 2.521-2.233.84-3.48 2.031-3.48 3.385 0 2.984 5.747 4.594 11.156 4.594 5.13 0 10.557-1.451 11.102-4.148a12.26 12.26 0 0 0 5.964 1.523l.226-.004a5.86 5.86 0 0 0 3.03 1.272 3.27 3.27 0 0 0 2.646 1.357 3.27 3.27 0 0 0 2.66-1.375q.306.061.621.062a3.285 3.285 0 0 0 3.282-3.281 3.25 3.25 0 0 0-.716-2.044q.06-.3.06-.581m-.776-9.491c.025.17.04.342.058.514-.378.769-2.507 1.758-5.845 1.758-1.513 0-3.355-.918-5.205-1.954 2.106-1.3 3.892-1.983 5.205-1.983 3.084 0 5.24.842 5.788 1.665M26.25 2.625c0-.362.294-.656.656-.656h3.938c.362 0 .656.294.656.656v3.281h-5.25zm-1.969 4.594h9.188a.657.657 0 0 1 0 1.312H24.28a.657.657 0 0 1 0-1.312m-.656 3.281c0-.362.294-.656.656-.656h9.188a.657.657 0 0 1 0 1.312H24.28a.657.657 0 0 1-.656-.656m.713 5.564a3.25 3.25 0 0 0 1.912-2.976v-.62h5.25v.619c0 1.286.766 2.46 1.952 2.995a11.18 11.18 0 0 1 5.977 6.584c-1.313-.632-3.194-1.01-5.304-1.01-1.707 0-3.894.87-6.494 2.566-2.253-1.286-4.566-2.566-6.631-2.566-.825 0-1.616.074-2.372.206a11.23 11.23 0 0 1 5.71-5.798m-12.526 8.217c3.606 0 5.907 1.166 5.907 1.969s-2.301 1.969-5.907 1.969-5.906-1.166-5.906-1.969 2.301-1.969 5.907-1.969m-8.53 6.563c0-.615 1.171-1.527 3.718-2.114 1.353.526 3.107.801 4.813.801s3.459-.275 4.812-.801c2.547.587 3.719 1.499 3.719 2.114 0 1.07-3.324 2.625-8.532 2.625-5.207 0-8.53-1.555-8.53-2.625m8.53 9.187c-5.633 0-9.843-1.732-9.843-3.281 0-.803 1.312-1.924 4.229-2.647 1.68.445 3.67.678 5.615.678 1.944 0 3.933-.233 5.614-.678 2.917.723 4.23 1.844 4.23 2.647 0 1.549-4.21 3.281-9.844 3.281m10.717-4.617c-.543-.798-1.579-1.498-3.041-2.049 1.32-.637 2.168-1.48 2.168-2.521 0-1.243-1.23-2.315-3.427-3.035.5-.44.802-.96.802-1.559 0-.73-.442-1.34-1.155-1.834q.092-.562.24-1.107c.894-.222 1.859-.34 2.884-.34 1.794 0 4.053 1.29 6.237 2.538 2.333 1.333 4.745 2.712 6.888 2.712 2.472 0 4.593-.51 5.885-1.334a11.2 11.2 0 0 1-1.138 4.32 3.24 3.24 0 0 0-1.466-.361c-.581 0-1.15.16-1.65.451a3.24 3.24 0 0 0-1.631-.451c-1.708 0-3.1 1.317-3.252 2.987a5.9 5.9 0 0 0-1.998-.362h-1.969v.656c0 1.19.355 2.3.964 3.23-.09-.008-.183-.01-.274-.02a11 11 0 0 1-5.067-1.92m13.565.023a.656.656 0 1 1 0 1.313.656.656 0 0 1 0-1.312m-1.47-.64a3.24 3.24 0 0 0-1.888.72 1.95 1.95 0 0 1-.58-1.392c0-1.085.884-1.969 1.969-1.969s1.969.884 1.969 1.969c-.587 0-1.11.263-1.47.672m-6.359-.016h.61a4.6 4.6 0 0 1 2.212.578c.18.443.46.84.813 1.167-.247.46-.4.979-.4 1.536 0 .16.025.314.047.467a4.59 4.59 0 0 1-3.282-3.748m6.516 5.25a1.97 1.97 0 0 1-1.968-1.968c0-.855.566-1.588 1.323-1.858a1.966 1.966 0 0 0 1.958 1.858c.226 0 .44-.046.643-.117.002.04.013.077.013.117a1.97 1.97 0 0 1-1.969 1.968m3.282-1.312c-.023 0-.044-.005-.066-.006a3.27 3.27 0 0 0-.133-1.774c.124-.257.199-.541.199-.845 0-.597-.273-1.125-.693-1.487q.036-.238.036-.482a3.26 3.26 0 0 0-.594-1.874c.19-.06.388-.095.594-.095 1.086 0 1.969.884 1.969 1.969 0 .171-.03.352-.096.567l-.116.38.282.278c.378.374.586.871.586 1.4a1.97 1.97 0 0 1-1.968 1.969"/><path d="M5.09 38.112c1.515.38 4.029.607 6.723.607v-1.313c-2.593 0-4.987-.212-6.404-.567zm24.441-7.924a1.97 1.97 0 0 0-1.968-1.97 1.97 1.97 0 0 0-1.97 1.97c0 1.085.884 1.968 1.97 1.968a1.97 1.97 0 0 0 1.968-1.968m-2.625 0a.657.657 0 1 1 1.313 0 .657.657 0 0 1-1.313 0m-4.593-5.907a1.97 1.97 0 0 0-1.97 1.969c0 1.085.884 1.969 1.97 1.969a1.97 1.97 0 0 0 1.968-1.969 1.97 1.97 0 0 0-1.968-1.969m0 2.625a.656.656 0 1 1 0-1.313.656.656 0 0 1 0 1.313"/></g><defs><clipPath id="a"><path fill="#fff" d="M0 0h42v42H0z"/></clipPath></defs></svg>