<svg xmlns="http://www.w3.org/2000/svg" width="42" height="42" fill="none" viewBox="0 0 42 42"><g clip-path="url(#a)"><path fill="#d46539" d="M38.475 35.688h-8.376q.383-.2.809-.452c1.668-.987 2.8-2.519 3.106-4.202.268-1.479-.12-2.919-1.121-4.164a7 7 0 0 0-.419-.472c.216-.782.61-1.573 1.466-2.429l1.657-1.657a1.69 1.69 0 0 0 1.9-.335 1.683 1.683 0 0 0-.833-2.83 1.67 1.67 0 0 0-.454-.832 1.67 1.67 0 0 0-1.188-.492c-.449 0-.87.174-1.188.492-.5.5-.63 1.265-.335 1.899l-1.658 1.659c-1.403 1.401-2.631 1.563-3.932 1.734l-.175.023a17 17 0 0 0-.857-.264c.236-.382.528-.745.89-1.107l1.658-1.658a1.69 1.69 0 0 0 1.899-.334 1.682 1.682 0 0 0-.832-2.831 1.67 1.67 0 0 0-.454-.831 1.67 1.67 0 0 0-1.188-.493c-.449 0-.87.175-1.188.493-.501.5-.63 1.265-.335 1.899l-1.658 1.657c-1.393 1.393-2.384 1.507-3.64 1.65-.636.074-1.354.156-2.178.415-.51-.043-.976-.077-1.38-.103a12.5 12.5 0 0 0-1.693.004L29.565 9.34a.574.574 0 0 0 0-.812c-5.848-5.848-14.953-6.5-21.53-1.96a3.3 3.3 0 0 0-.742-1.136 3.33 3.33 0 0 0-4.705 0 3.33 3.33 0 0 0 0 4.705 3.3 3.3 0 0 0 1.136.743c-4.54 6.576-3.888 15.68 1.96 21.529a.574.574 0 0 0 .812 0l1.418-1.418q-.021.477.01.95c.11 1.71.633 2.94 1.595 3.747H3.525a2.79 2.79 0 0 0-2.787 2.787 2.79 2.79 0 0 0 2.787 2.787h34.95a2.79 2.79 0 0 0 2.787-2.787 2.79 2.79 0 0 0-2.787-2.787m-4.08-14.746a.975.975 0 0 0 .163-1.178.534.534 0 0 1 .84-.637.53.53 0 0 1 .156.367c.008.42.343.756.764.763a.533.533 0 1 1-.27.996.975.975 0 0 0-1.179.162l-1.335 1.336-.474-.474zm-6.337 3.803c1.253-.164 2.658-.35 4.176-1.67l.502.502c-1.32 1.517-1.506 2.923-1.67 4.175a15 15 0 0 1-.155 1.01 3.55 3.55 0 0 1-1.02 2.168 3.52 3.52 0 0 1-2.505 1.037 3.52 3.52 0 0 1-2.504-1.037 3.52 3.52 0 0 1-1.038-2.505 3.546 3.546 0 0 1 3.204-3.525l.06-.008c.304-.062.618-.103.95-.147m.166-5.514a.975.975 0 0 0 .162-1.178.533.533 0 1 1 .996-.27c.007.42.343.756.764.764a.53.53 0 0 1 .522.531.534.534 0 0 1-.792.464.975.975 0 0 0-1.179.163l-1.335 1.336-.474-.474zm-2.16 2.136.5.5a6.6 6.6 0 0 0-.844 1.208 34 34 0 0 0-2.007-.383c.73-.2 1.49-.564 2.35-1.325M3.4 9.325a2.18 2.18 0 0 1 0-3.08 2.179 2.179 0 0 1 3.661 1.05 17 17 0 0 0-2.61 2.61 2.2 2.2 0 0 1-1.051-.58m2.697 21.859C.363 25.02.496 15.34 6.497 9.34c6-6 15.679-6.133 21.842-.398zm2.972.684a8 8 0 0 1 .17-2.202l6.176-6.176c.924-.216 1.901-.29 2.983-.22 1.669.106 4.427.349 6.869.88l-.034.11a4.7 4.7 0 0 0-1.163.85 4.66 4.66 0 0 0-1.374 3.315 4.66 4.66 0 0 0 1.373 3.317 4.66 4.66 0 0 0 3.317 1.373 4.66 4.66 0 0 0 3.316-1.373 4.7 4.7 0 0 0 1.35-2.84c.065-.335.11-.673.152-1l.004-.03c.629.91.863 1.925.676 2.957-.246 1.355-1.18 2.601-2.561 3.419-2.268 1.342-3.28 1.415-5.872 1.429v.011H12.489c-2.265-.276-3.266-1.45-3.42-3.82m29.406 8.245H3.525a1.64 1.64 0 0 1-1.638-1.638 1.64 1.64 0 0 1 1.638-1.638h34.95a1.64 1.64 0 0 1 1.638 1.638 1.64 1.64 0 0 1-1.638 1.638m-.339-35.259c1.105-.7 1.977-1.252 1.977-3.286a.574.574 0 1 1 1.149 0c0 2.666-1.334 3.511-2.511 4.257-1.174.743-2.188 1.385-2.188 3.881a.574.574 0 1 1-1.149 0c0-3.128 1.51-4.084 2.722-4.852m-6.445 4.597c0-3.128 1.51-4.084 2.722-4.852 1.105-.7 1.977-1.252 1.977-3.286a.574.574 0 0 1 1.149 0c0 2.666-1.335 3.511-2.512 4.257-1.174.743-2.187 1.385-2.187 3.881a.574.574 0 0 1-1.149 0"/></g><defs><clipPath id="a"><path fill="#fff" d="M0 0h42v42H0z"/></clipPath></defs></svg>