<svg xmlns="http://www.w3.org/2000/svg" width="42" height="42" fill="none" viewBox="0 0 42 42"><path fill="#d46539" d="M33.469 22.969c-.997 0-1.984.192-2.908.563a15.7 15.7 0 0 1-.37-3.253q.399.062.802.065a1.819 1.819 0 0 0 .639-3.522l-4.07-1.527v-.201a.656.656 0 0 0 .657-.656v-2.626c0-.056-.007-.111-.009-.167.301.107.617.164.937.168a2.33 2.33 0 0 0 2.093-1.294l.191-.382a.66.66 0 0 0 .069-.293v-.502l.17-.338.148.09a.657.657 0 0 0 .994-.563v-.656a4.6 4.6 0 0 0-4.593-4.594h-.178a1.795 1.795 0 0 0-1.432 2.872L25.598 7.67a4.6 4.6 0 0 0-1.973-.451 13.6 13.6 0 0 0-7.576 2.297l-2.625 1.748a5.09 5.09 0 0 0-2.268 4.236c0 1.571.437 3.112 1.261 4.45l1.733 2.822-1.231 1.539a7.875 7.875 0 1 0 3.454 7.189h.435l.255 3.332a.657.657 0 0 0 .656.605h4.593a.656.656 0 0 0 .657-.656v-.656A2.63 2.63 0 0 0 21 31.583v-1.95l8.161-6.347c.053.288.125.571.193.853a7.86 7.86 0 1 0 4.115-1.17m-15.64-6.4.42-.421.963.722-.867 1.041zm1.956 5.087h.287l-.207.208zm-.505-1.312-.394-1.03 1.378-1.656.794.596a1.485 1.485 0 0 1 .296 2.09zm2.565-3.14-2.64-1.979a9.1 9.1 0 0 1 3.34-1.954l.46 1.373a.66.66 0 0 0 .62.45v2.625a.66.66 0 0 0 .449.622l4.801 1.6v.258c0 .049.006.096.007.145h-6.07c.1-.287.153-.588.157-.892a2.82 2.82 0 0 0-1.124-2.248m4.831-.84 4.495 1.686a.507.507 0 0 1-.178.985 4.3 4.3 0 0 1-1.363-.222l-4.692-1.567v-2.152h1.312v.656a.66.66 0 0 0 .426.615m1.028-9.487c.302.108.601.222.892.356q-.781.418-1.612.722zm2.552 2.017a.66.66 0 0 0-.069.293v.502l-.122.243a1.02 1.02 0 0 1-.918.568 1.57 1.57 0 0 1-1.12-.464.64.64 0 0 0-.237-.148q-.165-.36-.39-.686c.887-.324 1.74-.737 2.543-1.233l.597.358zm-2.215-4.3h.178a3.29 3.29 0 0 1 3.239 2.756l-1.181-.708a12 12 0 0 0-2.373-1.092.497.497 0 0 1-.201-.816c.09-.09.211-.14.338-.14m-11.265 6.011a12.3 12.3 0 0 1 6.849-2.074 3.285 3.285 0 0 1 3.281 3.281v1.97h-2.808l-.507-1.52a.656.656 0 0 0-.781-.43 10.4 10.4 0 0 0-4.843 2.742l-.959.959-3.448-2.682a4 4 0 0 1 .59-.498zM12.469 15.5c.002-.54.12-1.075.346-1.566l3.7 2.878 1.086 2.822a10.3 10.3 0 0 1-3.127 1.156l-.94-1.527A7.2 7.2 0 0 1 12.47 15.5M8.53 37.406a6.561 6.561 0 1 1 3.562-12.066l-.412.516A5.901 5.901 0 1 0 14.4 31.5h.661a6.57 6.57 0 0 1-6.529 5.906m6.53-7.218H14.4a5.9 5.9 0 0 0-1.69-3.515l.41-.514a6.55 6.55 0 0 1 1.941 4.029m-7.12.94a.66.66 0 0 0 .59.372h4.541a4.6 4.6 0 1 1-2.217-4.612L8.02 30.432a.66.66 0 0 0-.078.697m1.955-.94 1.982-2.48a4.6 4.6 0 0 1 1.194 2.48zm6.477 0a7.85 7.85 0 0 0-2.434-5.054l.942-1.177 1.54 2.502.287 3.729zm5.283 3.937h-3.33L17.72 26.2a.7.7 0 0 0-.095-.294l-2.416-3.926a11.6 11.6 0 0 0 2.87-1.109l1.61 4.189v7.096a.656.656 0 0 0 .656.657 1.313 1.313 0 0 1 1.312 1.312M21 27.971v-3.033q0-.122-.043-.236l-.576-1.498 1.547-1.548h7.013l.012.132zm12.469 9.435a6.557 6.557 0 0 1-3.74-11.943c.07.22.13.442.212.656a5.864 5.864 0 1 0 1.157-.68c-.074-.208-.137-.42-.202-.63a6.562 6.562 0 1 1 2.573 12.597m-1.88-10.75a4.61 4.61 0 1 1-1.121.718 17 17 0 0 0 2.503 3.896l.996-.853a15.7 15.7 0 0 1-2.378-3.76M16.406 5.906H8.531V7.22h7.875zm-5.25 2.625H4.594v1.313h6.562z"/><path fill="#d46539" d="M9.188 18.375H.656v1.313h8.532zM4.594 15.75H.656v1.313h3.938z"/></svg>