<svg width="331" height="288" viewBox="0 0 331 288" fill="none" xmlns="http://www.w3.org/2000/svg">
<path d="M175.244 98.9505L176.24 98.8653L175.244 98.9505ZM85.6979 148.776L85.0923 149.572L85.1393 149.607L85.1901 149.637L85.6979 148.776ZM7.96967 287.835C8.43108 288.139 9.05117 288.011 9.35469 287.55L14.3007 280.03C14.6042 279.569 14.4762 278.949 14.0148 278.645C13.5534 278.342 12.9333 278.47 12.6298 278.931L8.23334 285.615L1.5497 281.219C1.08829 280.915 0.468202 281.043 0.164688 281.504C-0.138825 281.966 -0.0108259 282.586 0.450583 282.889L7.96967 287.835ZM329.937 7.84578L330.281 6.90667C322.711 4.13663 308.599 1.27643 291.872 0.327614C275.133 -0.621887 255.694 0.337662 237.472 5.26249C219.252 10.1872 202.184 19.0961 190.296 34.0936C178.394 49.1086 171.774 70.1118 174.248 99.0357L175.244 98.9505L176.24 98.8653C173.801 70.3462 180.337 49.8771 191.863 35.336C203.404 20.7775 220.037 12.0466 237.994 7.19321C255.951 2.33993 275.165 1.38309 291.759 2.3244C308.366 3.2664 322.268 6.10422 329.594 8.78488L329.937 7.84578ZM175.244 98.9505L174.248 99.0357C177.29 134.598 174.675 156.152 168.832 168.334C165.925 174.394 162.243 178.086 158.1 180.072C153.947 182.062 149.217 182.393 144.123 181.52C133.886 179.766 122.451 173.201 111.995 166.096C106.782 162.555 101.851 158.906 97.4625 155.691C93.0909 152.489 89.2295 149.697 86.2057 147.914L85.6979 148.776L85.1901 149.637C88.1106 151.359 91.8862 154.086 96.2807 157.305C100.658 160.511 105.622 164.184 110.871 167.751C121.337 174.862 133.085 181.658 143.785 183.492C149.159 184.412 154.335 184.094 158.964 181.876C163.601 179.653 167.575 175.579 170.635 169.199C176.725 156.503 179.287 134.485 176.24 98.8653L175.244 98.9505ZM85.6979 148.776L86.3035 147.98C75.851 140.026 64.2581 138.267 53.1293 141.804C42.0388 145.329 31.5008 154.08 22.9844 166.976C5.9476 192.774 -3.15815 235.376 7.53988 287.202L8.51923 287L9.49859 286.798C-1.11667 235.372 7.97063 193.34 24.6533 168.078C32.9967 155.444 43.2 147.059 53.7351 143.71C64.2317 140.374 75.1485 142.004 85.0923 149.572L85.6979 148.776Z" fill="url(#paint0_linear_714_579)"/>
<defs>
<linearGradient id="paint0_linear_714_579" x1="166.937" y1="1" x2="166.937" y2="287" gradientUnits="userSpaceOnUse">
<stop stop-color="white"/>
<stop offset="1" stop-color="#D46539"/>
</linearGradient>
</defs>
</svg>
