<svg xmlns="http://www.w3.org/2000/svg" width="429" height="293" fill="none" viewBox="0 0 429 293"><path stroke="#d46539" d="M76.788.5h269.348a9.5 9.5 0 0 1 6.63 2.696l31.447 30.645.009.009.01.008L424.443 69.2a9.5 9.5 0 0 1 3.229 7.136v133.687a9.5 9.5 0 0 1-2.692 6.625l-33.604 34.53-38.604 38.09a9.5 9.5 0 0 1-6.672 2.737H76.939a9.5 9.5 0 0 1-6.845-2.912l-30.957-32.167-35.42-40.366a9.5 9.5 0 0 1-2.36-6.207L.528 76.019a9.5 9.5 0 0 1 2.82-6.814l35.77-35.367L70.113 3.239A9.5 9.5 0 0 1 76.788.5Z"/><mask width="404" height="263" x="12" y="14" maskUnits="userSpaceOnUse" style="mask-type:alpha"><path fill="#d9d9d9" d="M48.958 46.468 77.984 17.82a10 10 0 0 1 7.025-2.883h253.213a10 10 0 0 1 6.979 2.838l29.449 28.694 37.676 33.11a10 10 0 0 1 3.399 7.51v111.318a10 10 0 0 1-2.834 6.974L381.4 237.735l-36.191 35.704a10 10 0 0 1-7.023 2.881H85.159c-2.718 0-5.32-1.107-7.205-3.065l-28.996-30.127-33.223-37.859a10 10 0 0 1-2.484-6.526L12.476 86.78a10 10 0 0 1 2.97-7.18z"/></mask></svg>