<svg xmlns="http://www.w3.org/2000/svg" width="516" height="618" fill="none" viewBox="0 0 516 618"><path stroke="#d46539" d="M91.697.5h326.274a9.5 9.5 0 0 1 6.63 2.696l38.495 37.513.008.009.01.009 49.157 43.203a9.5 9.5 0 0 1 3.229 7.135v428.367a9.5 9.5 0 0 1-2.691 6.626l-41.08 42.21-47.123 46.495a9.5 9.5 0 0 1-6.671 2.737H91.848a9.5 9.5 0 0 1-6.846-2.912l-37.926-39.409-43.164-49.194v-.001a9.5 9.5 0 0 1-2.36-6.242L.51 90.73a9.5 9.5 0 0 1 2.82-6.78l43.736-43.245L85.023 3.24A9.5 9.5 0 0 1 91.697.5Z"/><mask width="486" height="582" x="15" y="18" maskUnits="userSpaceOnUse" style="mask-type:alpha"><path fill="#d9d9d9" d="m59 56 35.58-35.117A10 10 0 0 1 101.603 18h306.83a10 10 0 0 1 6.978 2.838L451.5 56l46.101 40.513a10 10 0 0 1 3.399 7.512v402.912c0 2.605-1.017 5.108-2.834 6.975L459.634 553.5l-44.213 43.619a10 10 0 0 1-7.024 2.881H101.755c-2.719 0-5.32-1.107-7.205-3.065L59 560l-40.525-46.18a10 10 0 0 1-2.484-6.572l-.98-403.558a10 10 0 0 1 2.969-7.136z"/></mask></svg>