<svg xmlns="http://www.w3.org/2000/svg" width="165" height="157" fill="none" viewBox="0 0 165 157"><path fill="#fff" d="m9.708 91.128 8.555 1.92.278 2.401-13.5-3.512 8.237-4.794-9.116-2.778 12.336-6.513.278 2.4-7.882 3.865 9.239 2.462zm.262 7.987a1.27 1.27 0 0 0-.617.394q-.211.269-.249.63-.03.38.1.801.165.539.52.91.36.389.864.528a1.9 1.9 0 0 0 1.1-.025l-.929.582q-.742.228-1.383-.055a2.8 2.8 0 0 1-1.074-.85 4 4 0 0 1-.641-1.243 3.3 3.3 0 0 1-.13-1.438q.096-.712.538-1.254.442-.543 1.235-.787 1.13-.347 2.031.242.92.585 1.365 2.036.24.775.242 1.384.008.625-.114 1.069-.105.438-.244.647l-.927.286q.21-.637.197-1.279a4.7 4.7 0 0 0-.216-1.3q-.177-.573-.437-.88a1.2 1.2 0 0 0-.554-.421 1.15 1.15 0 0 0-.676.023m3.146-1.596 1.054-1.137q.48.425 1.039 1.157.563.75.896 1.83.295.96.232 1.774-.058.83-.468 1.418-.393.582-1.169.822l-5.53 1.703-.551-1.788 5.177-1.594q.371-.114.565-.322.2-.19.284-.457.085-.266.059-.59a3.2 3.2 0 0 0-.135-.678 4 4 0 0 0-.452-.987 4 4 0 0 0-.558-.733q-.274-.285-.442-.418m4.089 5.796 1.762 4.255-1.548.642-1.762-4.255zm3.128.175.723 1.745-10.107 4.186-.723-1.744zm-3.95 8.068q-.687.363-1.045.931a2.54 2.54 0 0 0-.376 1.216q-.025.67.305 1.295.27.516.675.901.403.386.873.597t.904.201l-1.857.98q-.572-.177-1.128-.702a4.9 4.9 0 0 1-.96-1.289q-.585-1.108-.586-2.244a4.2 4.2 0 0 1 .594-2.089q.594-.953 1.687-1.529 1.108-.585 2.214-.53a4.04 4.04 0 0 1 2.044.697q.953.634 1.538 1.742.403.765.523 1.52t-.058 1.327l-1.857.98q.268-.362.336-.876.09-.507 0-1.057a3.4 3.4 0 0 0-.354-1.05 2.54 2.54 0 0 0-.898-.983 2.5 2.5 0 0 0-1.232-.367q-.671-.025-1.342.329m12.69 2.614-11.276 7.892-1.093-1.561 11.276-7.892zm-5.326 7.777q.736-.516.9-1.083.174-.552-.282-1.203a1.87 1.87 0 0 0-.724-.634 1.65 1.65 0 0 0-.884-.156q-.465.044-.913.358l-.262-.376q.795-.557 1.619-.702a3.06 3.06 0 0 1 1.564.111q.75.272 1.276 1.024.516.737.581 1.445.075.723-.321 1.388-.382.655-1.235 1.252l-4.265 2.985-1.102-1.576zm7.947 7.548q-.845.948-1.118 2.052a4.05 4.05 0 0 0 .088 2.157q.337 1.055 1.246 1.865.922.821 1.997 1.021a3.9 3.9 0 0 0 2.14-.175q1.077-.388 1.921-1.336.845-.95 1.106-2.039a3.9 3.9 0 0 0-.063-2.159q-.323-1.044-1.259-1.876-.91-.81-1.996-1.022a4 4 0 0 0-2.165.176q-1.053.387-1.897 1.336m-1.648-1.467q.927-1.04 2.057-1.594a5.9 5.9 0 0 1 2.34-.611q1.233-.06 2.42.359 1.2.43 2.215 1.333 1.041.927 1.594 2.057t.625 2.351a5.8 5.8 0 0 1-.323 2.406q-.418 1.187-1.345 2.228a6.8 6.8 0 0 1-2.057 1.594 6.1 6.1 0 0 1-2.362.638 6.3 6.3 0 0 1-2.433-.346q-1.186-.418-2.228-1.345a6.8 6.8 0 0 1-1.594-2.057 6.3 6.3 0 0 1-.626-2.376 6.2 6.2 0 0 1 .372-2.409q.43-1.2 1.345-2.228m11.528 13.24q-.459.733-.398 1.333.061.601.705 1.003.464.291.92.326.465.021.875-.201.42-.237.71-.701l2.621-4.188 1.616 1.012-4.307 6.88-1.616-1.012.665-1.062q-.703.393-1.423.379-.697-.02-1.414-.468-1.152-.722-1.33-1.833-.165-1.101.603-2.328l2.734-4.367 1.66 1.039zm10.711.385-3.52 7.314-1.701-.819 3.52-7.314zm1.299 2.877a2.5 2.5 0 0 0-.308-.501 1.4 1.4 0 0 0-.479-.348q-.43-.206-.806-.114a1.43 1.43 0 0 0-.696.429 3.6 3.6 0 0 0-.548.853l-.412-.61q.421-.874 1.06-1.389.664-.523 1.364-.676.716-.144 1.272.123.398.192.686.487.297.28.39.697zm9.268-1.25.503-1.802 5.32 1.485-.503 1.802zm-1.319 4.724.489-1.75 5.15 1.437-.49 1.751zm.581-6.872 1.972.55-3.321 11.897-1.972-.55zm8.005 11.344q-.126.855.171 1.381.297.525 1.048.636.54.08.973-.071.435-.167.721-.536.29-.386.369-.926l.72-4.888 1.886.278-1.184 8.03-1.885-.278.183-1.24a2.8 2.8 0 0 1-1.153.919q-.645.261-1.482.138-1.345-.199-1.954-1.144-.592-.944-.382-2.375l.752-5.098 1.938.286zm8.402-9.686 1.904.088-.638 13.749-1.903-.088zm4.536.124 1.905-.044.319 13.76-1.905.044zm10.71 7.352-.404-1.881 8.609-1.847.404 1.88zm5.894-8.105 2.036-.437 2.592 12.077-2.036.437zm-8.108 1.74 2.035-.437 2.592 12.077-2.036.437zm13.425 5.369q-.446-1.171-.255-2.262.206-1.098.942-1.943.73-.863 1.901-1.307 1.172-.445 2.273-.277a4.05 4.05 0 0 1 1.994.828q.883.684 1.327 1.856.439 1.155.238 2.268a4.2 4.2 0 0 1-.936 1.96q-.719.838-1.891 1.284-1.17.444-2.282.3a4.2 4.2 0 0 1-2.001-.845q-.872-.707-1.31-1.862m1.831-.695q.269.71.773 1.141a2.44 2.44 0 0 0 1.127.535 2.4 2.4 0 0 0 1.268-.142 2.36 2.36 0 0 0 1.531-1.883q.09-.657-.179-1.366t-.773-1.142a2.25 2.25 0 0 0-1.144-.528 2.4 2.4 0 0 0-1.251.135 2.4 2.4 0 0 0-1.042.735 2.3 2.3 0 0 0-.489 1.149q-.09.657.179 1.366m5.002-6.386 4.12-2.059.749 1.5-4.12 2.059zm-.047-3.133 1.689-.844 4.89 9.787-1.688.844zm12.552 5.706q-1.042.663-2.13.728a3.66 3.66 0 0 1-2.017-.474q-.942-.53-1.625-1.601-.692-1.088-.771-2.166a3.63 3.63 0 0 1 .464-2.031q.52-.959 1.607-1.65t2.111-.757a3.3 3.3 0 0 1 1.929.467q.91.509 1.61 1.61.075.12.146.263.085.134.108.203l-6.014 3.827-.701-1.102 4.645-2.955-.056.997a2 2 0 0 0-.062-.295 1 1 0 0 0-.111-.306q-.35-.55-.83-.81a1.8 1.8 0 0 0-.993-.247q-.514.013-1.02.336-.61.388-.872.931a2 2 0 0 0-.162 1.191q.098.648.557 1.402.474.744 1.029 1.123.545.364 1.147.357.618-.015 1.243-.414.654-.416.975-.997.32-.58.298-1.34l1.745-.315q.051 1.264-.504 2.266-.555 1.001-1.746 1.759m-3.1-14.788 1.499-1.176 8.497 10.827-1.499 1.177zm17.021-2.1-4.068-8.487 1.595-1.793 5.729 13.177-13.753-4.161 1.595-1.793zm-1.951-9.788a1.1 1.1 0 0 1-.474-.767q-.06-.496.214-.885a1.15 1.15 0 0 1 .762-.499q.478-.095.881.19.39.274.475.766.08.467-.214.885-.275.39-.763.499a1.14 1.14 0 0 1-.881-.189m2.792 1.644 1.078-1.528 6.633 4.678-1.078 1.529zm.544-11.569.935-1.681 12.027 6.693-.935 1.68zm5.212 10.594q-1.173-.652-1.724-1.585-.566-.942-.56-1.968-.002-1.05.505-1.96.498-.895 1.314-1.309.824-.429 1.871-.352 1.04.054 2.197.698 1.141.635 1.751 1.499.618.849.687 1.776.08.912-.419 1.806a4.1 4.1 0 0 1-1.384 1.471 3.84 3.84 0 0 1-1.983.553q-1.1.014-2.255-.629m.96-1.727q.71.394 1.382.385a2.3 2.3 0 0 0 1.2-.342 2.6 2.6 0 0 0 .854-.918q.266-.478.261-1.087a2.3 2.3 0 0 0-.327-1.191q-.336-.591-1.062-.995-.725-.404-1.389-.369a2.26 2.26 0 0 0-1.2.342 2.17 2.17 0 0 0-.786.794 2.6 2.6 0 0 0-.33 1.21 2.3 2.3 0 0 0 .342 1.2q.347.576 1.055.971m9.636-10.166q-.442 1.153-1.278 1.853a3.66 3.66 0 0 1-1.902.82q-1.074.135-2.259-.319-1.203-.462-1.909-1.281a3.6 3.6 0 0 1-.836-1.909q-.153-1.079.308-2.281.462-1.203 1.246-1.866a3.3 3.3 0 0 1 1.827-.773q1.033-.132 2.253.335.132.05.274.124.148.057.208.099l-2.555 6.655-1.219-.467 1.973-5.14.549.834a2 2 0 0 0-.226-.2 1 1 0 0 0-.271-.18q-.609-.233-1.149-.157-.534.06-.945.393a2 2 0 0 0-.62.877q-.259.676-.146 1.267.113.592.578 1.054.466.462 1.283.795.824.315 1.495.29a2 2 0 0 0 1.135-.396q.486-.38.752-1.072.278-.725.19-1.383-.089-.657-.558-1.253l1.214-1.292q.794.985.944 2.12t-.356 2.453m-2.033-6.746q-1.219-.291-2.014-1.061a4.05 4.05 0 0 1-1.078-1.872q-.302-1.088-.011-2.307.29-1.218 1.048-2.035a4.05 4.05 0 0 1 1.806-1.184q1.062-.345 2.281-.055 1.2.287 2.01 1.079a4.2 4.2 0 0 1 1.094 1.876q.29 1.066-.001 2.285-.291 1.218-1.035 2.057a4.2 4.2 0 0 1-1.823 1.179q-1.076.324-2.277.038m.455-1.905q.738.176 1.378.002.623-.179 1.076-.632.435-.459.596-1.128a2.4 2.4 0 0 0-.027-1.258 2.4 2.4 0 0 0-.67-1.067q-.493-.444-1.231-.62-.738-.177-1.378-.003a2.24 2.24 0 0 0-1.08.65 2.4 2.4 0 0 0-.592 1.11q-.16.67.022 1.275.183.606.675 1.05t1.231.62m.349-21.678 1.654-.485.748 3.675-1.031.29zm4.469.51.968 1.42-3.245 1.836-.612-.863zm.887 4.419-1.043 1.366-2.756-2.546.658-.83zm-3.908 2.206-1.626-.573 1.557-3.4 1.015.345zm-3.307-3.037.047-1.728 3.713.435-.029 1.059zm1.08-22.912-8.725-.86-.57-2.35 13.828 1.838-7.589 5.763 9.387 1.645-11.448 7.97-.57-2.349 7.351-4.798-9.47-1.315zm-1.149-7.69q.37-.165.566-.464.178-.293.172-.656a2.1 2.1 0 0 0-.194-.783 2.3 2.3 0 0 0-.626-.842 1.8 1.8 0 0 0-.921-.42 1.9 1.9 0 0 0-1.09.156l.853-.688q.71-.315 1.379-.112.647.195 1.169.716.498.512.785 1.157.309.693.3 1.411a2.45 2.45 0 0 1-.382 1.31q-.375.592-1.132.929-1.08.48-2.046.003-.982-.471-1.599-1.857-.33-.742-.406-1.345a4 4 0 0 1-.015-1.075q.052-.448.164-.672l.887-.395q-.132.658-.042 1.294t.37 1.264q.243.549.539.822.28.282.601.351.314.054.668-.104m-2.932 1.962-.909 1.254q-.53-.363-1.171-1.024-.648-.676-1.108-1.708-.409-.92-.443-1.734-.042-.833.294-1.464.321-.626 1.062-.956l5.288-2.353.76 1.708-4.949 2.203q-.354.158-.523.388a1.1 1.1 0 0 0-.227.487q-.051.274.013.593.065.319.215.657.23.516.567.926.314.402.642.661.304.25.489.362m-4.698-5.168-2.254-4.016 1.461-.82 2.255 4.015zm-3.127.197-.924-1.647 9.54-5.355.924 1.647zm3.061-8.357q.639-.44.928-1.047.274-.596.231-1.251a2.53 2.53 0 0 0-.455-1.251 3.5 3.5 0 0 0-.776-.816 3.1 3.1 0 0 0-.937-.49 2.1 2.1 0 0 0-.922-.093l1.729-1.191q.59.108 1.203.564a4.9 4.9 0 0 1 1.104 1.167q.711 1.032.846 2.16a4.2 4.2 0 0 1-.344 2.145q-.479 1.016-1.496 1.716-1.032.711-2.137.786a4.05 4.05 0 0 1-2.111-.452q-1.021-.517-1.732-1.55a4.9 4.9 0 0 1-.698-1.447q-.207-.735-.098-1.325l1.729-1.191a1.83 1.83 0 0 0-.231.909q-.032.514.124 1.05.155.536.475 1.001.4.582 1.007.87.597.276 1.266.221.67-.054 1.295-.485m-12.998-1.254 10.248-9.187 1.273 1.419-10.248 9.187zm4.355-8.36q-.67.602-.764 1.184-.106.569.424 1.16.354.395.795.543.441.15.897.05.456-.102.863-.466l.306.341q-.723.648-1.523.892a3.06 3.06 0 0 1-1.566.077q-.778-.18-1.39-.863-.601-.67-.751-1.366a2.2 2.2 0 0 1 .153-1.416q.3-.696 1.075-1.39l3.876-3.475 1.284 1.432zm-18.441-5.817-1.673-1.18 7.475-10.598 2.232 12.479 4.78-6.777 1.673 1.18-7.475 10.598-2.232-12.479zm1.617-8.755q-.552 1.125-1.479 1.731-.942.6-2.062.64-1.128.056-2.253-.496t-1.755-1.47a4.05 4.05 0 0 1-.758-2.022q-.103-1.112.449-2.237.543-1.11 1.494-1.724a4.2 4.2 0 0 1 2.07-.655q1.105-.048 2.23.504 1.124.551 1.778 1.462.646.926.75 2.038.08 1.12-.464 2.229m-1.759-.863q.334-.681.306-1.344a2.45 2.45 0 0 0-.38-1.188 2.4 2.4 0 0 0-.97-.83 2.4 2.4 0 0 0-1.233-.25 2.4 2.4 0 0 0-1.188.42q-.542.382-.876 1.063t-.305 1.344.396 1.197q.351.526.953.82.618.305 1.249.26t1.172-.428q.542-.383.876-1.064m-8.086.388-1.973-.607-.399-5.182-3.746 4.551-.667-5.928-3.25 4.076-1.972-.607 6.185-7.198.814 5.993 3.942-4.528zm-24.605-2.509-.408-1.675 3.705-.577.242 1.043zm.715-4.441 1.464-.901 1.684 3.326-.891.571zm4.456-.682 1.316 1.105-2.67 2.635-.799-.695zm2.023 4.006-.648 1.598-3.324-1.713.391-.997zM88.67 13.54l-1.724-.127.607-3.688 1.056.077zM65.19 6.97l-1.29 8.67-2.375.454 2.52-13.72 5.381 7.865L71.533.945l7.393 11.83-2.374.452-4.428-7.58-1.783 9.394zm-7.874.782a1.27 1.27 0 0 0-.437-.588 1.2 1.2 0 0 0-.646-.203 2.1 2.1 0 0 0-.792.156q-.526.204-.87.584a1.8 1.8 0 0 0-.466.9 1.9 1.9 0 0 0 .104 1.095l-.647-.885q-.28-.724-.044-1.383.226-.637.772-1.133a4 4 0 0 1 1.193-.728 3.3 3.3 0 0 1 1.425-.231q.717.044 1.29.446.572.402.872 1.175.427 1.102-.096 2.044-.518.958-1.932 1.507-.758.294-1.364.34a4 4 0 0 1-1.074-.037q-.445-.075-.663-.197l-.352-.905q.651.165 1.29.105.64-.06 1.282-.308.559-.216.847-.499.294-.265.38-.583a1.15 1.15 0 0 0-.072-.672m1.817 3.023 1.209.97q-.39.51-1.08 1.12-.708.614-1.76 1.023-.938.364-1.754.359-.833 0-1.448-.366-.609-.35-.903-1.107L51.303 7.38l1.744-.677 1.96 5.05q.14.362.361.541.205.187.476.25.272.066.593.017.322-.05.667-.183.527-.204.953-.521a4 4 0 0 0 .69-.61q.266-.291.386-.47m-5.417 4.442-4.12 2.058-.75-1.5 4.12-2.058zm.046 3.133-1.689.843-4.89-9.786 1.69-.844zm-8.65-3.2q-.412-.658-1.006-.973-.583-.301-1.24-.286-.67.025-1.27.4-.493.309-.848.739a3.1 3.1 0 0 0-.53.915 2.1 2.1 0 0 0-.135.916l-1.114-1.78q.135-.582.617-1.176a4.9 4.9 0 0 1 1.215-1.052q1.062-.664 2.195-.75a4.2 4.2 0 0 1 2.127.438q.993.523 1.649 1.57.665 1.062.692 2.17a4.05 4.05 0 0 1-.545 2.089q-.562.998-1.624 1.662a4.9 4.9 0 0 1-1.477.633q-.746.174-1.328.04l-1.115-1.78q.38.241.898.271.513.054 1.055-.077a3.4 3.4 0 0 0 1.021-.431q.599-.375.914-.968.3-.585.276-1.255-.025-.672-.427-1.315m-1.511 12.701-8.693-10.67 1.478-1.204 8.693 10.67zm-8.144-4.745q.568.697 1.145.82.564.132 1.18-.369.41-.335.58-.768.17-.435.09-.894a1.9 1.9 0 0 0-.423-.884l.356-.29q.612.753.818 1.564.205.81.003 1.568-.217.768-.928 1.348-.697.568-1.4.684a2.2 2.2 0 0 1-1.407-.219q-.68-.333-1.338-1.14l-3.288-4.036 1.492-1.214zm-6.714 18.17-1.257 1.615-10.232-7.97 12.57-1.638-6.542-5.096 1.257-1.615 10.232 7.97-12.57 1.638zm-8.899-1.641q1.1.6 1.665 1.553.556.968.547 2.09.006 1.128-.596 2.228-.6 1.099-1.546 1.688-.939.613-2.054.667-1.116.054-2.215-.547-1.083-.594-1.655-1.57a4.2 4.2 0 0 1-.563-2.097q.001-1.106.602-2.205t1.54-1.712a4.2 4.2 0 0 1 2.07-.658q1.122-.03 2.205.563m-.94 1.718q-.665-.364-1.328-.365a2.44 2.44 0 0 0-1.205.327q-.54.328-.871.932a2.4 2.4 0 0 0-.306 1.22q.024.657.367 1.206.358.559 1.024.922.666.364 1.33.365a2.24 2.24 0 0 0 1.212-.343 2.4 2.4 0 0 0 .863-.915q.33-.605.314-1.236a2.3 2.3 0 0 0-.375-1.19q-.359-.559-1.024-.923m.258 7.63-.703 1.94-5.195.145 4.363 3.965-5.955.376 3.913 3.445-.704 1.94-6.886-6.53 6.026-.52-4.33-4.158zm-8.28 23.435-1.71.219-.163-3.746 1.065-.124zm-4.335-1.205-.732-1.555 3.492-1.304.47.95zm-.182-4.503 1.245-1.186 2.322 2.947-.78.716zm4.206-1.566 1.516.821-2.071 3.114-.948-.5zm2.79 3.518-.318 1.7-3.599-1.013.195-1.04z"/></svg>